<svg width="109" height="40" viewBox="0 0 109 40" fill="none" xmlns="http://www.w3.org/2000/svg">
<g clip-path="url(#clip0_3_212)">
<path d="M54.2026 37.8929C55.255 37.8929 56.1759 37.3749 56.6693 36.5609L55.5346 35.9031C55.2879 36.3471 54.7864 36.6102 54.2026 36.6102C53.183 36.6102 52.5253 35.9278 52.5253 34.9C52.5253 33.8722 53.183 33.1898 54.2026 33.1898C54.7864 33.1898 55.2797 33.4529 55.5346 33.8969L56.6693 33.2391C56.1677 32.4251 55.2468 31.9071 54.2026 31.9071C52.4677 31.9071 51.2097 33.2062 51.2097 34.9C51.2097 36.5938 52.4677 37.8929 54.2026 37.8929ZM59.7834 33.5515C59.2325 33.5515 58.8296 33.7407 58.5583 34.0531V33.6667H57.325V39.4222H58.5583V37.3913C58.8296 37.7038 59.2325 37.8929 59.7834 37.8929C60.8605 37.8929 61.7485 36.9473 61.7485 35.7222C61.7485 34.4971 60.8605 33.5515 59.7834 33.5515ZM59.5368 36.7253C58.9694 36.7253 58.5583 36.3389 58.5583 35.7222C58.5583 35.1055 58.9694 34.7191 59.5368 34.7191C60.1041 34.7191 60.5152 35.1055 60.5152 35.7222C60.5152 36.3389 60.1041 36.7253 59.5368 36.7253ZM65.4325 33.6667V34.0531C65.1611 33.7407 64.7582 33.5515 64.2073 33.5515C63.1302 33.5515 62.2422 34.4971 62.2422 35.7222C62.2422 36.9473 63.1302 37.8929 64.2073 37.8929C64.7582 37.8929 65.1611 37.7038 65.4325 37.3913V37.7778H66.6658V33.6667H65.4325ZM64.454 36.7253C63.8867 36.7253 63.4756 36.3389 63.4756 35.7222C63.4756 35.1055 63.8867 34.7191 64.454 34.7191C65.0213 34.7191 65.4325 35.1055 65.4325 35.7222C65.4325 36.3389 65.0213 36.7253 64.454 36.7253ZM70.6376 35.6729C70.8925 35.4838 71.024 35.196 71.024 34.8424C71.024 34.16 70.5389 33.6667 69.6262 33.6667H67.5707V37.7778H69.7907C70.7033 37.7778 71.1885 37.2844 71.1885 36.602C71.1885 36.1827 70.9911 35.862 70.6376 35.6729ZM69.4947 34.6533C69.7167 34.6533 69.8565 34.7438 69.8565 34.9493C69.8565 35.1467 69.7167 35.2289 69.4947 35.2289H68.7218V34.6533H69.4947ZM69.6262 36.7582H68.7218V36.1662H69.6262C69.84 36.1662 69.988 36.2567 69.988 36.454C69.988 36.6595 69.84 36.7582 69.6262 36.7582ZM74.4334 33.6667V35.1467H73.0356V33.6667H71.8022V37.7778H73.0356V36.2978H74.4334V37.7778H75.6668V33.6667H74.4334ZM79.5319 33.6667L77.7719 35.7222V33.6667H76.5719V37.7778H77.4764L79.2356 35.7222V37.7778H80.4364V33.6667H79.5319ZM86.3571 33.6667L84.5971 35.7222V33.6667H83.3971V37.7778H84.3016L86.0608 35.7222V37.7778H87.2616V33.6667H86.3571ZM94.1682 37.7778L92.6312 35.7222L94.1275 33.6667H92.6882L91.4549 35.4673V33.6667H90.2216V37.7778H91.4549V35.9607L92.7705 37.7778H94.1682ZM97.2119 33.6667L96.4394 36.1909L95.4853 33.6667H94.1697L95.7816 37.7038C95.5919 38.1395 95.329 38.2711 94.7786 38.2711V39.4222C95.8475 39.4798 96.6608 38.9618 97.1216 37.6544L98.5275 33.6667H97.2119ZM102.847 33.6667H98.9823V37.7778H100.216V34.8178H101.613V37.7778H102.847V33.6667ZM106.712 33.6667L104.952 35.7222V33.6667H103.752V37.7778H104.656L106.416 35.7222V37.7778H107.616V33.6667H106.712Z" fill="#323232"/>
<path d="M57.4029 20.2459L65.9259 7.55557V3.25928H50.9629V7.55557H59.4814L50.9629 21.1793V25.0371H65.8962V20.2459H57.4029Z" fill="#323232"/>
<path d="M78.3407 24.8844C79.7719 24.8844 81.1096 24.3244 82.0119 23.4844V25.0711H86.9896V16.2044C86.9896 11.4444 83.1007 7.55554 78.3407 7.55554C73.5185 7.55554 69.6296 11.4444 69.6296 16.2044C69.6296 20.9955 73.5185 24.8844 78.3407 24.8844ZM78.3407 19.9067C76.2563 19.9067 74.6074 18.2578 74.6074 16.2044C74.6074 14.1822 76.2563 12.5333 78.3407 12.5333C80.363 12.5333 82.0119 14.1822 82.0119 16.2044C82.0119 18.2578 80.363 19.9067 78.3407 19.9067Z" fill="#323232"/>
<path d="M99.434 24.9778C104.225 24.9778 108.114 21.0578 108.114 16.2667C108.114 11.4444 104.225 7.55554 99.434 7.55554C94.6118 7.55554 90.7229 11.4444 90.7229 16.2667V29.8933H95.7007V23.5155C96.634 24.3867 97.9718 24.9778 99.434 24.9778ZM99.434 12.5333C101.487 12.5333 103.136 14.1822 103.136 16.2667C103.136 18.32 101.487 20 99.434 20C97.3496 20 95.7007 18.32 95.7007 16.2667C95.7007 14.1822 97.3496 12.5333 99.434 12.5333Z" fill="#323232"/>
<path d="M0 16.851C0 7.54444 7.54119 0 16.8438 0H26.7118C36.0144 0 43.5556 7.54444 43.5556 16.851V23.149C43.5556 32.4556 36.0144 40 26.7118 40H16.8438C7.54119 40 0 32.4556 0 23.149V16.851Z" fill="#C6303C"/>
<path d="M20.6081 30.8889H25.3334V9.11108H16.8889V13.4666H20.6081V30.8889Z" fill="white"/>
</g>
<defs>
<clipPath id="clip0_3_212">
<rect width="108.148" height="40" fill="white"/>
</clipPath>
</defs>
</svg>
