<svg width="12" height="12" viewBox="0 0 12 12" fill="none" xmlns="http://www.w3.org/2000/svg">
<path d="M2.69226 9.30859C3.62195 10.2201 4.72481 10.6758 6.00085 10.6758C7.2769 10.6758 8.37065 10.2201 9.2821 9.30859C10.2118 8.37891 10.6766 7.27604 10.6766 6C10.6766 4.72396 10.2118 3.63021 9.2821 2.71875C8.37065 1.78906 7.2769 1.32422 6.00085 1.32422C4.72481 1.32422 3.62195 1.78906 2.69226 2.71875C1.7808 3.63021 1.32507 4.72396 1.32507 6C1.32507 7.27604 1.7808 8.37891 2.69226 9.30859ZM1.87195 1.89844C3.02039 0.75 4.39669 0.175781 6.00085 0.175781C7.60502 0.175781 8.97221 0.75 10.1024 1.89844C11.2509 3.02865 11.8251 4.39583 11.8251 6C11.8251 7.60417 11.2509 8.98047 10.1024 10.1289C8.97221 11.2591 7.60502 11.8242 6.00085 11.8242C4.39669 11.8242 3.02039 11.2591 1.87195 10.1289C0.74174 8.98047 0.176636 7.60417 0.176636 6C0.176636 4.39583 0.74174 3.02865 1.87195 1.89844ZM3.92273 3.94922C4.50606 3.36589 5.19877 3.07422 6.00085 3.07422C6.80294 3.07422 7.48653 3.36589 8.05164 3.94922C8.63497 4.51432 8.92664 5.19792 8.92664 6C8.92664 6.80208 8.63497 7.49479 8.05164 8.07812C7.48653 8.64323 6.80294 8.92578 6.00085 8.92578C5.19877 8.92578 4.50606 8.64323 3.92273 8.07812C3.35763 7.49479 3.07507 6.80208 3.07507 6C3.07507 5.19792 3.35763 4.51432 3.92273 3.94922Z" fill="#C6303C"/>
</svg>
