<svg width="10" height="14" viewBox="0 0 10 14" fill="none" xmlns="http://www.w3.org/2000/svg">
<path d="M8.74152 4.51172C9.2337 5.25911 9.4798 6.08854 9.4798 7C9.4798 8.27604 9.01495 9.37891 8.08527 10.3086C7.17381 11.2201 6.08006 11.6758 4.80402 11.6758V13.4258L2.4798 11.0742L4.80402 8.75V10.5C5.77016 10.5 6.59047 10.1628 7.26495 9.48828C7.95766 8.79557 8.30402 7.96615 8.30402 7C8.30402 6.45312 8.1673 5.90625 7.89386 5.35938L8.74152 4.51172ZM4.80402 3.5C3.83787 3.5 3.00844 3.84635 2.31573 4.53906C1.64126 5.21354 1.30402 6.03385 1.30402 7C1.30402 7.58333 1.44073 8.13021 1.71417 8.64062L0.866516 9.48828C0.374329 8.74089 0.128235 7.91146 0.128235 7C0.128235 5.72396 0.583964 4.63021 1.49542 3.71875C2.42511 2.78906 3.52797 2.32422 4.80402 2.32422V0.574219L7.12823 2.92578L4.80402 5.25V3.5Z" fill="#0D0A19"/>
</svg>
