<svg width="35" height="39" viewBox="0 0 35 39" fill="none" xmlns="http://www.w3.org/2000/svg">
<path fill-rule="evenodd" clip-rule="evenodd" d="M2.10138 39H31.9802C33.1177 38.9989 34.0397 38.0833 34.0408 36.9535V19.0465C34.0396 17.9168 33.1177 17.0012 31.9802 17H2.10138C0.963839 17.0012 0.0419839 17.9168 0.0407715 19.0465V36.9535C0.0418942 38.0833 0.963801 38.9989 2.10138 39ZM2.10137 36.9535V19.0465L31.9802 19.0465L31.9817 36.9535H2.10137Z" fill="white"/>
<path fill-rule="evenodd" clip-rule="evenodd" d="M8.04077 19H27.0408L27.0408 10.5556C27.0408 4.43921 23.0453 0 17.5408 0C12.0362 0 8.04077 4.43921 8.04077 10.5556V19ZM24.9297 16.8889H10.1519L10.1519 10.5556C10.1519 5.58367 13.1903 2.11111 17.5408 2.11111C21.8913 2.11111 24.9297 5.58365 24.9297 10.5556V16.8889Z" fill="white"/>
<circle cx="17.0408" cy="28" r="2" fill="white"/>
</svg>
