<svg width="73" height="34" viewBox="0 0 73 34" fill="none" xmlns="http://www.w3.org/2000/svg">
<path d="M8.75361 21.3074L19.4073 5.44447V0.0740967H0.703613V5.44447H11.3518L0.703613 22.4741V27.2963H19.3703V21.3074H8.75361Z" fill="#323232"/>
<path d="M34.926 27.1056C36.7149 27.1056 38.3871 26.4056 39.5149 25.3556V27.3389H45.7371V16.2556C45.7371 10.3056 40.876 5.44446 34.926 5.44446C28.8982 5.44446 24.0371 10.3056 24.0371 16.2556C24.0371 22.2445 28.8982 27.1056 34.926 27.1056ZM34.926 20.8833C32.3204 20.8833 30.2593 18.8222 30.2593 16.2556C30.2593 13.7278 32.3204 11.6667 34.926 11.6667C37.4538 11.6667 39.5149 13.7278 39.5149 16.2556C39.5149 18.8222 37.4538 20.8833 34.926 20.8833Z" fill="#323232"/>
<path d="M61.2927 27.2222C67.2816 27.2222 72.1427 22.3222 72.1427 16.3333C72.1427 10.3056 67.2816 5.44446 61.2927 5.44446C55.2649 5.44446 50.4038 10.3056 50.4038 16.3333V33.3667H56.626V25.3945C57.7927 26.4833 59.4649 27.2222 61.2927 27.2222ZM61.2927 11.6667C63.8594 11.6667 65.9205 13.7278 65.9205 16.3333C65.9205 18.9 63.8594 21 61.2927 21C58.6871 21 56.626 18.9 56.626 16.3333C56.626 13.7278 58.6871 11.6667 61.2927 11.6667Z" fill="#323232"/>
</svg>
