<svg width="12" height="12" viewBox="0 0 12 12" fill="none" xmlns="http://www.w3.org/2000/svg">
<path d="M8.46179 9.5L7.80554 6.68359L9.99304 4.79688L7.12195 4.55078L6.00085 1.92578L4.87976 4.57812L2.00867 4.79688L4.19617 6.68359L3.53992 9.5L6.00085 8.02344L8.46179 9.5ZM1.87195 1.89844C3.02039 0.75 4.39669 0.175781 6.00085 0.175781C7.60502 0.175781 8.97221 0.75 10.1024 1.89844C11.2509 3.02865 11.8251 4.39583 11.8251 6C11.8251 7.60417 11.2509 8.98047 10.1024 10.1289C8.97221 11.2591 7.60502 11.8242 6.00085 11.8242C4.39669 11.8242 3.02039 11.2591 1.87195 10.1289C0.74174 8.98047 0.176636 7.60417 0.176636 6C0.176636 4.39583 0.74174 3.02865 1.87195 1.89844Z" fill="#C6303C"/>
</svg>
