<svg width="15" height="16" viewBox="0 0 15 16" fill="none" xmlns="http://www.w3.org/2000/svg">
<path d="M11.9297 12.043C12.9844 10.918 13.5117 9.57031 13.5117 8C13.5117 6.75781 13.1602 5.63281 12.457 4.625C11.7773 3.61719 10.875 2.89063 9.75 2.44531V2.76172C9.75 3.16016 9.59766 3.51172 9.29297 3.81641C8.98828 4.09766 8.63672 4.23828 8.23828 4.23828H6.76172V5.75C6.76172 5.96094 6.67969 6.13672 6.51562 6.27734C6.375 6.41797 6.19922 6.48828 5.98828 6.48828H4.51172V8H9.01172C9.22266 8 9.39844 8.07031 9.53906 8.21094C9.67969 8.35156 9.75 8.52734 9.75 8.73828V10.9883H10.4883C11.1914 10.9883 11.6719 11.3398 11.9297 12.043ZM6.76172 13.9414V12.5C6.36328 12.5 6.01172 12.3477 5.70703 12.043C5.40234 11.7383 5.25 11.3867 5.25 10.9883V10.25L1.66406 6.66406C1.54688 7.13281 1.48828 7.57812 1.48828 8C1.48828 9.52344 1.99219 10.8477 3 11.9727C4.03125 13.0977 5.28516 13.7539 6.76172 13.9414ZM2.19141 2.72656C3.66797 1.25 5.4375 0.511719 7.5 0.511719C9.5625 0.511719 11.3203 1.25 12.7734 2.72656C14.25 4.17969 14.9883 5.9375 14.9883 8C14.9883 10.0625 14.25 11.832 12.7734 13.3086C11.3203 14.7617 9.5625 15.4883 7.5 15.4883C5.4375 15.4883 3.66797 14.7617 2.19141 13.3086C0.738281 11.832 0.0117188 10.0625 0.0117188 8C0.0117188 5.9375 0.738281 4.17969 2.19141 2.72656Z" fill="#9A9EA7"/>
</svg>
