<svg width="13" height="4" viewBox="0 0 13 4" fill="none" xmlns="http://www.w3.org/2000/svg">
<path d="M5.44531 0.945312C5.75 0.640625 6.10156 0.488281 6.5 0.488281C6.89844 0.488281 7.25 0.640625 7.55469 0.945312C7.85938 1.25 8.01172 1.60156 8.01172 2C8.01172 2.39844 7.85938 2.75 7.55469 3.05469C7.25 3.35938 6.89844 3.51172 6.5 3.51172C6.10156 3.51172 5.75 3.35938 5.44531 3.05469C5.14062 2.75 4.98828 2.39844 4.98828 2C4.98828 1.60156 5.14062 1.25 5.44531 0.945312ZM9.94531 0.945312C10.25 0.640625 10.6016 0.488281 11 0.488281C11.3984 0.488281 11.75 0.640625 12.0547 0.945312C12.3594 1.25 12.5117 1.60156 12.5117 2C12.5117 2.39844 12.3594 2.75 12.0547 3.05469C11.75 3.35938 11.3984 3.51172 11 3.51172C10.6016 3.51172 10.25 3.35938 9.94531 3.05469C9.64062 2.75 9.48828 2.39844 9.48828 2C9.48828 1.60156 9.64062 1.25 9.94531 0.945312ZM0.945312 0.945312C1.25 0.640625 1.60156 0.488281 2 0.488281C2.39844 0.488281 2.75 0.640625 3.05469 0.945312C3.35938 1.25 3.51172 1.60156 3.51172 2C3.51172 2.39844 3.35938 2.75 3.05469 3.05469C2.75 3.35938 2.39844 3.51172 2 3.51172C1.60156 3.51172 1.25 3.35938 0.945312 3.05469C0.640625 2.75 0.488281 2.39844 0.488281 2C0.488281 1.60156 0.640625 1.25 0.945312 0.945312Z" fill="#9A9EA7"/>
</svg>
